<svg width="28" height="28" viewBox="0 0 28 28" fill="none" xmlns="http://www.w3.org/2000/svg">
<path d="M10.475 4H5.3C3.575 4 3 5 3 6V15.5L26 15V8C26 7 25.425 6 23.7 6H13.925C12.775 6 12.2 4 10.475 4Z" fill="#63BC88" stroke="#7CCF9F"/>
<path d="M3.75899 10.5H25.241C26.1415 10.5 26.8391 11.2879 26.73 12.1818L25.6313 21.1818C25.5394 21.9343 24.9005 22.5 24.1423 22.5H4.85766C4.09952 22.5 3.46058 21.9343 3.36871 21.1818L2.27005 12.1818C2.16093 11.2879 2.85848 10.5 3.75899 10.5Z" fill="url(#paint0_linear)" stroke="#7CCF9F"/>
<defs>
<linearGradient id="paint0_linear" x1="3.63043" y1="13.3571" x2="19.5696" y2="29.3301" gradientUnits="userSpaceOnUse">
<stop stop-color="#92D7AE"/>
<stop offset="1" stop-color="#B0EFCA"/>
</linearGradient>
</defs>
</svg>
